<svg width="14" height="16" viewBox="0 0 14 16" fill="none" xmlns="http://www.w3.org/2000/svg">
<path d="M13.392 13.8671L12.4713 3.49079C12.4547 3.28545 12.2825 3.12979 12.0739 3.12979H10.1331C10.1297 1.40426 8.72548 0 6.99996 0C5.27444 0 3.87017 1.40426 3.86686 3.12979H1.92606C1.72072 3.12979 1.5485 3.28545 1.52863 3.49079L0.60791 13.8671C0.60791 13.8804 0.60791 13.8903 0.60791 13.9035C0.60791 15.0594 1.67104 16 2.97595 16H11.024C12.3289 16 13.392 15.0594 13.392 13.9035C13.392 13.8903 13.392 13.8804 13.392 13.8671ZM6.99996 0.794866C8.28831 0.794866 9.33488 1.84144 9.33819 3.12979H4.66173C4.66504 1.84144 5.71162 0.794866 6.99996 0.794866ZM11.024 15.2018H2.97595C2.11484 15.2018 1.41271 14.6289 1.40278 13.9168L2.29038 3.92465H3.86686V5.31898C3.86686 5.53757 4.04571 5.71641 4.2643 5.71641C4.48288 5.71641 4.66173 5.53757 4.66173 5.31898V3.92465H9.33819V5.31898C9.33819 5.53757 9.51704 5.71641 9.73563 5.71641C9.95422 5.71641 10.1331 5.53757 10.1331 5.31898V3.92465H11.7095L12.5971 13.9201C12.5872 14.6289 11.8851 15.2018 11.024 15.2018Z" fill="white"/>
</svg>
