<svg width="17" height="17" viewBox="0 0 17 17" fill="none" xmlns="http://www.w3.org/2000/svg">
<path d="M8.47206 9.49104C10.9844 9.49104 13.0221 7.45326 13.0221 4.94096C13.0221 2.42866 10.9844 0.404816 8.47206 0.404816C5.95976 0.404816 3.92198 2.4426 3.92198 4.94096C3.92198 7.43932 5.95973 9.49104 8.47206 9.49104ZM8.47206 1.59119C10.3144 1.59119 11.8218 3.09857 11.8218 4.94096C11.8218 6.78335 10.3144 8.2907 8.47206 8.2907C6.62971 8.2907 5.1223 6.78332 5.1223 4.94093C5.1223 3.09855 6.62968 1.59119 8.47206 1.59119Z" fill="black"/>
<path d="M0.600158 16.5953H16.3998C16.7348 16.5953 17 16.3301 17 15.9951C17 12.8547 14.4458 10.2866 11.2915 10.2866H5.70855C2.56815 10.2866 0 12.8407 0 15.9951C0 16.3301 0.265185 16.5953 0.600158 16.5953ZM5.70855 11.4869H11.2915C13.5804 11.4869 15.4647 13.1897 15.7578 15.3949H1.2422C1.53529 13.2036 3.41955 11.4869 5.70855 11.4869Z" fill="black"/>
</svg>
